<svg width="54" height="53" viewBox="0 0 54 53" fill="none" xmlns="http://www.w3.org/2000/svg">
<rect x="0.702515" y="22.6661" width="37.746" height="37.746" rx="4" transform="rotate(-36.5216 0.702515 22.6661)" fill="url(#paint0_linear_4_75)"/>
<g clip-path="url(#clip0_4_75)">
<path d="M20.059 17.1968C23.0239 15.0013 23.3834 14.7525 24.5938 13.9389C25.713 13.1867 26.4349 12.9322 26.9388 12.7944C27.6062 12.6121 28.1543 12.5788 28.8306 12.6796C29.5068 12.7805 30.0214 12.9722 30.6066 13.3413C31.0484 13.62 31.6646 14.074 32.5157 15.12C33.4362 16.2513 33.7075 16.5941 35.903 19.559C38.0985 22.5239 38.3472 22.8834 39.1608 24.0938C39.9131 25.213 40.1675 25.9349 40.3052 26.4388C40.4876 27.1062 40.5209 27.6543 40.4201 28.3306C40.3193 29.0068 40.1275 29.5214 39.7584 30.1065C39.4797 30.5484 39.0257 31.1646 37.9797 32.0157C36.8486 32.936 36.5058 33.2074 33.5407 35.403C30.5757 37.5986 30.2162 37.8473 29.0059 38.6608C27.8867 39.4131 27.1649 39.6675 26.661 39.8052C25.9936 39.9876 25.4454 40.0209 24.7692 39.9201C24.0929 39.8193 23.5783 39.6275 22.9932 39.2584C22.5513 38.9797 21.9351 38.5257 21.084 37.4797C20.1636 36.3484 19.8922 36.0056 17.6968 33.0407C15.5013 30.0759 15.2525 29.7163 14.4389 28.5059C13.6867 27.3867 13.4322 26.6648 13.2945 26.1609C13.1121 25.4936 13.0788 24.9454 13.1796 24.2692C13.2805 23.5929 13.4722 23.0783 13.8413 22.4931C14.12 22.0513 14.574 21.4351 15.62 20.584C16.7513 19.6636 17.0941 19.3922 20.059 17.1968ZM18.5775 15.196C15.5618 17.4291 15.1932 17.7219 14.0489 18.6529C12.9069 19.5821 12.2388 20.3674 11.7357 21.165C11.2157 21.9894 10.8776 22.8277 10.7174 23.9021C10.5572 24.9765 10.6361 25.8768 10.893 26.8171C11.1415 27.7267 11.5515 28.6729 12.3728 29.8947C13.1957 31.119 13.463 31.5066 15.6961 34.5222C17.9292 37.5379 18.2219 37.9066 19.1529 39.0508C20.0821 40.1928 20.8674 40.861 21.665 41.364C22.4894 41.884 23.3277 42.2221 24.4021 42.3823C25.4765 42.5425 26.3768 42.4637 27.3171 42.2067C28.2267 41.9582 29.1729 41.5482 30.3947 40.7269C31.6191 39.904 32.0066 39.6367 35.0222 37.4036C38.0379 35.1706 38.4066 34.8778 39.5509 33.9468C40.6928 33.0176 41.361 32.2323 41.864 31.4347C42.3841 30.6103 42.7222 29.7721 42.8823 28.6977C43.0425 27.6233 42.9637 26.7229 42.7067 25.7826C42.4582 24.873 42.0482 23.9269 41.2269 22.705C40.404 21.4807 40.1368 21.0931 37.9037 18.0775C35.6706 15.0618 35.3778 14.6932 34.4468 13.5489C33.5177 12.4069 32.7323 11.7387 31.9347 11.2357C31.1103 10.7157 30.2721 10.3776 29.1977 10.2174C28.1233 10.0572 27.2229 10.1361 26.2826 10.393C25.373 10.6415 24.4269 11.0515 23.205 11.8728C21.9807 12.6957 21.5931 12.9629 18.5775 15.196ZM22.5775 20.5979C19.4284 22.9298 18.766 27.3731 21.0979 30.5222C23.4298 33.6713 27.8731 34.3337 31.0222 32.0018C34.1713 29.6699 34.8338 25.2266 32.5018 22.0775C30.1699 18.9284 25.7266 18.266 22.5775 20.5979ZM29.5407 30.0011C27.4965 31.5148 24.6123 31.0848 23.0986 29.0407C21.5849 26.9965 22.0149 24.1123 24.0591 22.5986C26.1032 21.0849 28.9875 21.5149 30.5012 23.559C32.0148 25.6032 31.5848 28.4875 29.5407 30.0011ZM29.6704 14.9968C30.2154 15.7327 30.0606 16.771 29.3247 17.316C28.5888 17.8609 27.5504 17.7061 27.0055 16.9702C26.4606 16.2343 26.6154 15.196 27.3513 14.651C28.0872 14.1061 29.1255 14.2609 29.6704 14.9968Z" fill="white"/>
</g>
<defs>
<linearGradient id="paint0_linear_4_75" x1="19.5755" y1="22.6661" x2="19.5755" y2="60.4121" gradientUnits="userSpaceOnUse">
<stop stop-color="#405DE6"/>
<stop offset="0.197917" stop-color="#5851DB"/>
<stop offset="0.401042" stop-color="#833AB4"/>
<stop offset="0.598958" stop-color="#C13584"/>
<stop offset="0.802083" stop-color="#E1306C"/>
<stop offset="1" stop-color="#FD1D1D"/>
</linearGradient>
<clipPath id="clip0_4_75">
<rect x="7.47367" y="23.4184" width="27.6335" height="27.6335" transform="rotate(-36.52 7.47367 23.4184)" fill="white"/>
</clipPath>
</defs>
</svg>
