<svg width="45" height="45" viewBox="0 0 45 45" fill="none" xmlns="http://www.w3.org/2000/svg">
<rect x="19" width="31.9665" height="31.9665" rx="4" transform="rotate(35.705 19 0)" fill="white"/>
<g clip-path="url(#clip0_4_107)">
<path d="M27.5688 21.7954C28.0893 23.3292 29.0768 24.7213 30.4926 25.739L32.45 23.016C32.1821 22.8234 31.9349 22.6034 31.7126 22.3595L30.1719 24.5029C28.7562 23.4852 27.7688 22.0932 27.248 20.5593L23.2535 26.1163C21.2552 28.8961 17.3807 29.5288 14.5996 27.5296C13.5619 26.7836 12.8228 25.7768 12.4081 24.6631C12.6508 26.2549 13.5093 27.7514 14.9202 28.7656C17.7015 30.7649 21.5761 30.1323 23.5744 27.3523L27.5689 21.7955L27.5688 21.7954ZM30.5272 19.7553C30.4096 18.765 30.6052 17.7352 31.1408 16.8262L31.3926 16.476L30.637 15.9329C30.0477 17.1539 30.0305 18.5466 30.5272 19.7553ZM15.7006 23.7944C15.6829 23.1743 15.8699 22.5658 16.2327 22.0627C17.1466 20.7913 18.9189 20.5018 20.1912 21.4163C20.4284 21.5867 20.638 21.7924 20.8124 22.0265L22.8136 19.2426C22.5755 19.0166 22.32 18.8097 22.0496 18.6238L20.492 20.7907C20.3173 20.5565 20.1077 20.3506 19.8704 20.1803C18.5981 19.2657 16.8259 19.5552 15.9118 20.8268C15.2655 21.7259 15.2215 22.8748 15.7006 23.7944Z" fill="#FF004F"/>
<path d="M27.2481 20.5593C27.7689 22.0932 28.7562 23.4852 30.1719 24.5028L31.7127 22.3594C31.0434 21.6231 30.6405 20.7075 30.5272 19.7553C30.0305 18.5465 30.0478 17.1539 30.637 15.9329L28.6523 14.5062L20.8341 25.3823C19.9182 26.647 18.1506 26.9336 16.8811 26.021C16.1329 25.4832 15.7245 24.649 15.7005 23.7943C15.2214 22.8747 15.2655 21.7257 15.9117 20.8268C16.8257 19.5553 18.5979 19.2657 19.8702 20.1803C20.114 20.3555 20.3217 20.5623 20.4918 20.7907L22.0495 18.6238C19.2766 16.7162 15.4753 17.368 13.5026 20.1122C12.5178 21.4821 12.1723 23.1174 12.4082 24.6632C12.8229 25.7768 13.5619 26.7838 14.5996 27.5297C17.3808 29.5289 21.2553 28.8961 23.2535 26.1163L27.2481 20.5593L27.2481 20.5593Z" fill="black"/>
<path d="M31.7127 22.3594L32.1293 21.7798C31.4159 21.2687 30.8607 20.567 30.5272 19.7552C30.6415 20.7256 31.0559 21.636 31.7127 22.3594ZM30.637 15.9329C30.6933 15.8162 30.7544 15.7019 30.82 15.5902L31.0718 15.24L28.3314 13.2701L20.5131 24.1463C19.5974 25.4109 17.8299 25.6976 16.5602 24.7849C16.1875 24.5169 15.8991 24.1755 15.7004 23.7943C15.7245 24.649 16.1329 25.4831 16.8811 26.0209C18.1505 26.9335 19.9181 26.6471 20.834 25.3824L28.6523 14.5061L30.637 15.9329ZM22.0495 18.6239L22.4931 18.0069C22.2866 17.811 22.067 17.6294 21.8358 17.4633C19.0544 15.4639 15.1798 16.0966 13.1817 18.8763C11.929 20.6189 11.7112 22.7917 12.4083 24.6631C12.1724 23.1173 12.5179 21.4821 13.5026 20.1122C15.4753 17.368 19.2766 16.7162 22.0495 18.6239Z" fill="#00F2EA"/>
</g>
<defs>
<clipPath id="clip0_4_107">
<rect width="18.0623" height="20.4612" fill="white" transform="translate(21 8) rotate(35.71)"/>
</clipPath>
</defs>
</svg>
