<svg width="87" height="87" viewBox="0 0 87 87" fill="none" xmlns="http://www.w3.org/2000/svg">
<rect x="16.4498" y="25.1805" width="46.1743" height="46.1743" rx="4" transform="rotate(-10.8992 16.4498 25.1805)" fill="#FF0000"/>
<g clip-path="url(#clip0_4_115)">
<path d="M53.7527 34.6058C53.2452 33.6054 52.2355 32.9491 51.1006 32.8819C49.0581 32.757 41.2646 34.347 41.2646 34.347C41.2646 34.347 33.4742 35.9528 31.6439 36.8678C30.6261 37.3742 29.9541 38.3736 29.8791 39.4928C29.9845 43.0001 30.8104 48.2084 32.3029 51.2916C32.8104 52.292 33.8201 52.9483 34.955 53.0155C36.9975 53.1404 44.791 51.5504 44.791 51.5504C44.791 51.5504 52.5846 49.9604 54.4149 49.0453C55.4327 48.5389 56.1046 47.5395 56.1797 46.4203C56.1053 42.9018 55.2432 37.7041 53.7527 34.6058Z" fill="white"/>
<path d="M41.2915 47.1435L47.0046 42.1373L39.787 39.7692L41.2915 47.1435Z" fill="#FF0000"/>
</g>
<defs>
<clipPath id="clip0_4_115">
<rect width="25.4673" height="17.6312" fill="white" transform="translate(28.8007 36.8898) rotate(-11.5311)"/>
</clipPath>
</defs>
</svg>
