<svg width="51" height="48" viewBox="0 0 51 48" fill="none" xmlns="http://www.w3.org/2000/svg">
<path fill-rule="evenodd" clip-rule="evenodd" d="M25.5431 48C39.1767 48 50.2288 37.2548 50.2288 24C50.2288 10.7452 39.1767 0 25.5431 0C11.9096 0 0.857422 10.7452 0.857422 24C0.857422 37.2548 11.9096 48 25.5431 48Z" fill="#EFF2F6"/>
<path d="M25.8574 33.35L24.4074 32.03C19.2574 27.36 15.8574 24.28 15.8574 20.5C15.8574 17.42 18.2774 15 21.3574 15C23.0974 15 24.7674 15.81 25.8574 17.09C26.9474 15.81 28.6174 15 30.3574 15C33.4374 15 35.8574 17.42 35.8574 20.5C35.8574 24.28 32.4574 27.36 27.3074 32.04L25.8574 33.35Z" fill="#323232"/>
</svg>
