<svg width="50" height="48" viewBox="0 0 50 48" fill="none" xmlns="http://www.w3.org/2000/svg">
<path fill-rule="evenodd" clip-rule="evenodd" d="M24.6855 48C38.3189 48 49.371 37.2548 49.371 24C49.371 10.7452 38.3189 0 24.6855 0C11.0521 0 0 10.7452 0 24C0 37.2548 11.0521 48 24.6855 48Z" fill="#EFF2F6"/>
<g clip-path="url(#clip0_67_1000)">
<path d="M25.1426 24.75C26.7726 24.75 28.2126 25.14 29.3826 25.65C30.4626 26.13 31.1426 27.21 31.1426 28.38V30H19.1426V28.39C19.1426 27.21 19.8226 26.13 20.9026 25.66C22.0726 25.14 23.5126 24.75 25.1426 24.75ZM17.1426 25C18.2426 25 19.1426 24.1 19.1426 23C19.1426 21.9 18.2426 21 17.1426 21C16.0426 21 15.1426 21.9 15.1426 23C15.1426 24.1 16.0426 25 17.1426 25ZM18.2726 26.1C17.9026 26.04 17.5326 26 17.1426 26C16.1526 26 15.2126 26.21 14.3626 26.58C13.6226 26.9 13.1426 27.62 13.1426 28.43V30H17.6426V28.39C17.6426 27.56 17.8726 26.78 18.2726 26.1ZM33.1426 25C34.2426 25 35.1426 24.1 35.1426 23C35.1426 21.9 34.2426 21 33.1426 21C32.0426 21 31.1426 21.9 31.1426 23C31.1426 24.1 32.0426 25 33.1426 25ZM37.1426 28.43C37.1426 27.62 36.6626 26.9 35.9226 26.58C35.0726 26.21 34.1326 26 33.1426 26C32.7526 26 32.3826 26.04 32.0126 26.1C32.4126 26.78 32.6426 27.56 32.6426 28.39V30H37.1426V28.43ZM25.1426 18C26.8026 18 28.1426 19.34 28.1426 21C28.1426 22.66 26.8026 24 25.1426 24C23.4826 24 22.1426 22.66 22.1426 21C22.1426 19.34 23.4826 18 25.1426 18Z" fill="#323232"/>
</g>
<defs>
<clipPath id="clip0_67_1000">
<rect width="24" height="24" fill="white" transform="translate(13.1426 12)"/>
</clipPath>
</defs>
</svg>
