<svg width="18" height="19" viewBox="0 0 18 19" fill="none" xmlns="http://www.w3.org/2000/svg">
<path d="M9 12.1813C8.9 12.1813 8.80625 12.1658 8.71875 12.1348C8.63125 12.1038 8.55 12.0505 8.475 11.975L5.775 9.275C5.6375 9.1375 5.56875 8.9625 5.56875 8.75C5.56875 8.5375 5.6375 8.3625 5.775 8.225C5.9125 8.0875 6.09075 8.01575 6.30975 8.00975C6.52875 8.00375 6.70675 8.06925 6.84375 8.20625L8.25 9.6125V4.25C8.25 4.0375 8.322 3.85925 8.466 3.71525C8.61 3.57125 8.788 3.4995 9 3.5C9.2125 3.5 9.39075 3.572 9.53475 3.716C9.67875 3.86 9.7505 4.038 9.75 4.25V9.6125L11.1563 8.20625C11.2938 8.06875 11.472 8.003 11.691 8.009C11.91 8.015 12.088 8.087 12.225 8.225C12.3625 8.3625 12.4313 8.5375 12.4313 8.75C12.4313 8.9625 12.3625 9.1375 12.225 9.275L9.525 11.975C9.45 12.05 9.36875 12.1033 9.28125 12.1348C9.19375 12.1663 9.1 12.1818 9 12.1813ZM4.5 15.5C4.0875 15.5 3.73425 15.353 3.44025 15.059C3.14625 14.765 2.9995 14.412 3 14V12.5C3 12.2875 3.072 12.1093 3.216 11.9653C3.36 11.8213 3.538 11.7495 3.75 11.75C3.9625 11.75 4.14075 11.822 4.28475 11.966C4.42875 12.11 4.5005 12.288 4.5 12.5V14H13.5V12.5C13.5 12.2875 13.572 12.1093 13.716 11.9653C13.86 11.8213 14.038 11.7495 14.25 11.75C14.4625 11.75 14.6408 11.822 14.7848 11.966C14.9288 12.11 15.0005 12.288 15 12.5V14C15 14.4125 14.853 14.7658 14.559 15.0598C14.265 15.3538 13.912 15.5005 13.5 15.5H4.5Z" fill="#B2BAC5"/>
</svg>
