<svg width="56" height="56" viewBox="0 0 56 56" fill="none" xmlns="http://www.w3.org/2000/svg">
<path d="M22.8323 43.8171C25.6862 43.8171 28.0029 41.5004 28.0029 38.6465V33.4759H22.8323C19.9784 33.4759 17.6617 35.7926 17.6617 38.6465C17.6617 41.5004 19.9784 43.8171 22.8323 43.8171Z" fill="#0ACF83"/>
<path d="M17.6522 28.2999C17.6522 25.4461 19.9689 23.1293 22.8228 23.1293H27.9934V33.476H22.8228C19.9689 33.476 17.6522 31.1592 17.6522 28.3054V28.2999Z" fill="#A259FF"/>
<path d="M17.6522 17.9532C17.6522 15.0994 19.9689 12.7826 22.8228 12.7826H27.9934V23.1293H22.8228C19.9689 23.1293 17.6522 20.8125 17.6522 17.9587V17.9532Z" fill="#F24E1E"/>
<path d="M27.9524 12.7826H33.1231C35.9769 12.7826 38.2937 15.0994 38.2937 17.9532C38.2937 20.8071 35.9769 23.1238 33.1231 23.1238H27.9524V12.7826Z" fill="#FF7262"/>
<path d="M38.3479 28.2999C38.3479 31.1537 36.0312 33.4705 33.1773 33.4705C30.3234 33.4705 27.9524 31.1537 27.9524 28.2999C27.9524 25.446 30.2692 23.1293 33.1231 23.1293C35.9769 23.1293 38.2937 25.446 38.2937 28.2999H38.3479Z" fill="#1ABCFE"/>
</svg>
