<svg width="56" height="56" viewBox="0 0 56 56" fill="none" xmlns="http://www.w3.org/2000/svg">
<path d="M19.3094 20.2714C19.8677 20.2638 20.4113 20.0913 20.8719 19.7756C21.3324 19.4599 21.6894 19.0151 21.8978 18.4971C22.1062 17.9791 22.1568 17.411 22.0433 16.8643C21.9297 16.3176 21.6571 15.8167 21.2596 15.4246C20.8621 15.0324 20.3576 14.7665 19.8094 14.6604C19.2612 14.5542 18.6939 14.6125 18.1788 14.8278C17.6636 15.0432 17.2236 15.4061 16.9142 15.8709C16.6047 16.3356 16.4396 16.8815 16.4395 17.4399C16.4405 17.8147 16.5157 18.1856 16.6608 18.5312C16.8058 18.8768 17.0179 19.1902 17.2847 19.4534C17.5515 19.7167 17.8677 19.9245 18.2153 20.0649C18.5628 20.2052 18.9346 20.2754 19.3094 20.2714Z" fill="#FF3366"/>
<path d="M13.3572 35.4233C13.1947 36.12 13.1097 36.8325 13.1036 37.5479C13.1036 40.0413 14.4521 41.6971 17.3297 41.6971C19.7117 41.6971 21.6403 40.2833 23.031 37.9974L22.182 41.4051H26.9113L29.6006 30.5634C30.2768 27.8164 31.5869 26.3949 33.5693 26.3949C35.1329 26.3949 36.1049 27.3631 36.1049 28.969C36.1138 29.4891 36.0426 30.0074 35.8936 30.5057L34.499 35.5002C34.3004 36.1856 34.2008 36.8958 34.2032 37.6094C34.2032 39.976 35.5978 41.7086 38.5099 41.7086C41.0033 41.7086 42.9896 40.1027 44.0845 36.2609L42.2404 35.5155C41.3107 38.0896 40.5077 38.5545 39.8738 38.5545C39.2399 38.5545 38.9018 38.1357 38.9018 37.2905C38.9198 36.8469 38.9908 36.4071 39.1131 35.9804L40.4655 31.1243C40.7695 30.1279 40.9261 29.0925 40.9303 28.0508C40.9303 24.4164 38.7328 22.5223 36.0742 22.5223C33.5808 22.5223 31.049 24.7698 29.7812 27.1326L30.7109 22.8835H23.4882L22.474 26.6255H25.8548L23.7687 34.9546C22.1359 38.5852 19.1354 38.6467 18.7742 38.5622C18.1557 38.42 17.76 38.178 17.76 37.3827C17.7797 36.7327 17.879 36.0876 18.0558 35.4618L21.2215 22.895H13.1882L12.1739 26.637H15.5087L13.3572 35.4233Z" fill="#FF3366"/>
</svg>
