<svg width="56" height="56" viewBox="0 0 56 56" fill="none" xmlns="http://www.w3.org/2000/svg">
<path fill-rule="evenodd" clip-rule="evenodd" d="M23.3124 11.6565C17.9563 12.0705 13.4024 12.4328 13.1954 12.4587C12.6002 12.588 12.0569 12.9762 11.7981 13.5195L11.5652 13.9853L11.5911 25.215L11.617 36.4447L11.9534 37.1433C12.1604 37.5314 13.4541 39.3426 14.8772 41.1797C17.6976 44.854 17.9046 45.0351 18.9655 45.1645C19.276 45.1904 21.6306 45.0869 24.1404 44.9316C26.6762 44.7764 30.7644 44.5176 33.1966 44.3882C43.6242 43.7414 43.0808 43.7931 43.7018 43.2756C44.4522 42.6546 44.3746 43.6896 44.4263 30.0277C44.4522 18.4616 44.4263 17.6854 44.2452 17.349C44.0641 16.935 43.7018 16.6763 38.9408 13.3384C35.7582 11.0873 35.5254 10.9838 34.1022 10.9579C33.5071 10.932 28.6427 11.2684 23.3124 11.6565Z" fill="white"/>
<path fill-rule="evenodd" clip-rule="evenodd" d="M23.3124 11.6565C17.9563 12.0705 13.4024 12.4328 13.1954 12.4587C12.6002 12.588 12.0569 12.9762 11.7981 13.5195L11.5652 13.9853L11.5911 25.215L11.617 36.4447L11.9534 37.1433C12.1604 37.5314 13.4541 39.3426 14.8772 41.1797C17.6976 44.854 17.9046 45.0351 18.9655 45.1645C19.276 45.1904 21.6306 45.0869 24.1404 44.9316C26.6762 44.7764 30.7644 44.5176 33.1966 44.3882C43.6242 43.7414 43.0808 43.7931 43.7018 43.2756C44.4522 42.6546 44.3746 43.6896 44.4263 30.0277C44.4522 18.4616 44.4263 17.6854 44.2452 17.349C44.0641 16.935 43.7018 16.6763 38.9408 13.3384C35.7582 11.0873 35.5254 10.9838 34.1022 10.9579C33.5071 10.932 28.6427 11.2684 23.3124 11.6565ZM35.3442 13.1314C35.81 13.3384 39.0961 15.6154 39.5618 16.0553C39.6912 16.1846 39.743 16.314 39.6653 16.3658C39.536 16.4951 19.1725 17.7113 18.5773 17.6078C18.3186 17.5819 17.9305 17.4266 17.6976 17.2714C16.7661 16.6245 14.4632 14.7356 14.4632 14.6063C14.4632 14.244 14.3856 14.244 23.4418 13.5713C25.1754 13.4678 28.0475 13.2608 29.7811 13.1055C33.533 12.8209 34.6456 12.8209 35.3442 13.1314ZM41.813 18.9791C41.9682 19.1344 42.0976 19.419 42.1493 19.7036C42.1752 19.9624 42.2011 24.7751 42.1752 30.3641C42.1493 39.9378 42.1235 40.5588 41.9423 40.8175C41.8388 40.9986 41.6318 41.1797 41.4507 41.2315C41.0108 41.4126 19.69 42.6287 19.2501 42.4994C19.0431 42.4476 18.7585 42.2665 18.6291 42.1112L18.3703 41.8525L18.3445 31.5026C18.3186 24.2317 18.3445 21.0232 18.4221 20.7386C18.4738 20.5316 18.655 20.2729 18.7843 20.1694C18.9655 20.04 20.2333 19.9365 24.5803 19.6777C27.6335 19.5225 32.3686 19.2379 35.0596 19.0567C41.5283 18.6686 41.5025 18.6686 41.813 18.9791Z" fill="black"/>
<path fill-rule="evenodd" clip-rule="evenodd" d="M36.0951 22.5236C34.9308 22.6012 33.8958 22.7047 33.7923 22.7824C33.43 22.9635 33.223 23.274 33.1713 23.6104C33.1454 23.9467 33.2489 23.9985 34.4133 24.1537L34.9049 24.2055V28.7853C34.9049 31.5022 34.879 33.2876 34.8014 33.2358C34.7496 33.1841 33.2489 30.8553 31.4377 28.1126C29.6264 25.3181 28.1257 23.0411 28.0998 23.0411C28.0739 23.0152 26.9096 23.067 25.4864 23.1705C23.7528 23.274 22.7955 23.4034 22.6143 23.5069C22.3038 23.6621 21.9416 24.2314 21.9416 24.5936C21.9416 24.8265 22.3556 24.9558 23.2095 24.9558H23.6752V38.1003L22.9248 38.3332C22.3815 38.4884 22.1745 38.5919 22.071 38.8248C21.9157 39.187 21.9157 39.4975 22.0968 39.4975C22.1486 39.4975 23.3647 39.4458 24.7619 39.3423C27.5047 39.187 27.8152 39.1094 28.0998 38.5402C28.2033 38.3849 28.2809 38.2038 28.2809 38.1262C28.2809 38.1003 27.8928 37.9709 27.4529 37.8674C26.9872 37.7639 26.5214 37.6345 26.4179 37.6345C26.2368 37.5828 26.2368 37.2464 26.2368 32.6407V27.6986L29.497 32.7959C32.9125 38.152 33.3265 38.773 33.8699 39.0318C34.5168 39.3681 36.1728 39.1353 37.0008 38.5919L37.2595 38.4367L37.2854 31.1399L37.3113 23.8174L37.8805 23.7139C38.5532 23.5845 38.8637 23.274 38.8637 22.7306C38.8637 22.3942 38.8379 22.3684 38.5274 22.3942C38.3463 22.3942 37.2336 22.4719 36.0951 22.5236Z" fill="black"/>
</svg>
