<svg width="56" height="56" viewBox="0 0 56 56" fill="none" xmlns="http://www.w3.org/2000/svg">
<path fill-rule="evenodd" clip-rule="evenodd" d="M18.8496 32.167C18.8496 34.0069 17.3647 35.4918 15.5248 35.4918C13.685 35.4918 12.2001 34.0019 12.2001 32.167C12.2001 30.3322 13.685 28.8423 15.5248 28.8423H18.8496V32.167ZM20.5094 32.167C20.5094 30.3272 21.9943 28.8423 23.8342 28.8423C25.674 28.8423 27.1589 30.3272 27.1589 32.167V40.4764C27.1589 42.3163 25.674 43.8011 23.8342 43.8011C21.9943 43.8011 20.5094 42.3163 20.5094 40.4764V32.167Z" fill="#E01E5A"/>
<path fill-rule="evenodd" clip-rule="evenodd" d="M23.833 18.8234C21.9931 18.8234 20.5082 17.3385 20.5082 15.4987C20.5082 13.6588 21.9931 12.1739 23.833 12.1739C25.6728 12.1739 27.1577 13.6588 27.1577 15.4987V18.8234H23.833ZM23.833 20.5083C25.6728 20.5083 27.1577 21.9932 27.1577 23.833C27.1577 25.6729 25.6728 27.1578 23.833 27.1578H15.4986C13.6588 27.1578 12.1739 25.6679 12.1739 23.833C12.1739 21.9981 13.6588 20.5083 15.4986 20.5083H23.833Z" fill="#36C5F0"/>
<path fill-rule="evenodd" clip-rule="evenodd" d="M37.151 23.833C37.151 21.9932 38.6359 20.5083 40.4758 20.5083C42.3156 20.5083 43.8005 21.9932 43.8005 23.833C43.8005 25.6729 42.3156 27.1578 40.4758 27.1578H37.151V23.833ZM35.4912 23.833C35.4912 25.6729 34.0063 27.1578 32.1664 27.1578C30.3266 27.1578 28.8417 25.6729 28.8417 23.833V15.4987C28.8417 13.6588 30.3266 12.1739 32.1664 12.1739C34.0063 12.1739 35.4912 13.6588 35.4912 15.4987V23.833Z" fill="#2EB67D"/>
<path fill-rule="evenodd" clip-rule="evenodd" d="M32.1664 37.1517C34.0063 37.1517 35.4912 38.6365 35.4912 40.4764C35.4912 42.3163 34.0063 43.8011 32.1664 43.8011C30.3266 43.8011 28.8417 42.3163 28.8417 40.4764V37.1517H32.1664ZM32.1664 35.4918C30.3266 35.4918 28.8417 34.0069 28.8417 32.167C28.8417 30.3272 30.3266 28.8423 32.1664 28.8423H40.5008C42.3406 28.8423 43.8255 30.3272 43.8255 32.167C43.8255 34.0069 42.3406 35.4918 40.5008 35.4918H32.1664Z" fill="#ECB22E"/>
</svg>
