<svg width="18" height="19" viewBox="0 0 18 19" fill="none" xmlns="http://www.w3.org/2000/svg">
<path d="M14.7375 7.28L11.1075 6.965L9.68999 3.6275C9.43499 3.02 8.56499 3.02 8.30999 3.6275L6.89249 6.9725L3.26999 7.28C2.60999 7.3325 2.33999 8.1575 2.84249 8.5925L5.59499 10.9775L4.76999 14.5175C4.61999 15.1625 5.31749 15.6725 5.88749 15.3275L8.99999 13.4525L12.1125 15.335C12.6825 15.68 13.38 15.17 13.23 14.525L12.405 10.9775L15.1575 8.5925C15.66 8.1575 15.3975 7.3325 14.7375 7.28ZM8.99999 12.05L6.17999 13.7525L6.92999 10.5425L4.43999 8.3825L7.72499 8.0975L8.99999 5.075L10.2825 8.105L13.5675 8.39L11.0775 10.55L11.8275 13.76L8.99999 12.05Z" fill="#B2BAC5"/>
</svg>
